<svg xmlns="http://www.w3.org/2000/svg" id="Layer_1" data-name="Layer 1" viewBox="382.88 263.31 324.34 92.57"><path d="M391.35,315.81a43.52,43.52,0,0,1-8.46-26.51c.05-10.16,6.26-17.88,18.34-21.72a84.54,84.54,0,0,1,24.82-4.07c92.48-.28,185-.18,277.45-.18,1,0,2,.07,3,.1l.72,1.09c-4.32,2-8.44,4.3-13,5.87-9.49,3.27-19.61,4.09-30,4.07q-103.32-.15-206.64,0c-10.14,0-20.29-.14-30.42.07-21.71.46-34.72,10.24-35.7,26.77C391.1,306.14,391.35,311.05,391.35,315.81Z"/><path d="M515.52,294.27,519,283.58H675.64c-5.76,6.71-14.51,8.91-24,9.91a144.36,144.36,0,0,1-15.14.88q-58.49.12-117,0C518.33,294.41,517.12,294.33,515.52,294.27Z"/><path d="M501.74,314.29c2.88-3.4,5.19-6.33,7.8-9.08a5.72,5.72,0,0,1,3.52-1.14q61.58,0,123.14.05c.14,0,.27.12.8.36-6.53,5.64-15.06,7.89-24.29,8.87a154.42,154.42,0,0,1-15.66.89q-45.33.12-90.66.05Z"/><path d="M568.32,323.87c-9.37,9.3-22.19,10.63-35.18,10.89-17.42.35-34.87.09-53.11.09,3.91-3.61,7.41-6.92,11.06-10.12a6.38,6.38,0,0,1,2.79-.82,17.43,17.43,0,0,1,2.61,0Z"/><path d="M403,290.88c4.07-6.21,5.6-6.75,15-2.79a90.19,90.19,0,0,1,16.08,8.49,8.89,8.89,0,0,1,3.54,10.71c-1.89,5.51-9.19,7.07-14.59,3.15a33.87,33.87,0,0,1-3.53-3.45Z"/><path d="M447.07,307.69l6.34-8c9.41,2.34,19.87,3.71,26.69,10.41,5.92,5.82,3.32,13.16-5.44,18.61-3.83-3.94-7.15-8.29-11.66-11.74S452.7,310.91,447.07,307.69Z"/><path d="M399.8,338.44c0-.93,0-1.85,0-2.78,0-5.65,4.38-8.78,11.89-8.41a3.89,3.89,0,0,1,2.48,1.13c4.41,5.9,8.65,11.83,7.71,19a9.09,9.09,0,0,1-8.51,8.4c-4.8.57-9.14-1.26-11.13-5.68-1.67-3.69-2.1-7.7-3.08-11.57Z"/><path d="M433.51,318.76c1.75-1.29,3.13-2.12,4.22-3.13,5.19-4.85,6.22-5.1,12.42-1.5a86.68,86.68,0,0,1,10.35,7.17c4.16,3.32,6.31,7.35,5.3,12-.75,3.42-3.35,5.93-8,6.55s-6.64-1.85-7.93-4.62C446.76,328.55,441.43,323.12,433.51,318.76Z"/><path d="M502.05,299.17c-8.22-8.46-13-9.68-41.5-13.8-.58-4.06,1.64-5.47,7.08-5.21,7.29.36,14.63.07,21.95.11a61.81,61.81,0,0,1,6.24.35c5.22.54,10.28,1.72,11.78,6.05C509.26,291.46,508,295.89,502.05,299.17Z"/><path d="M418.52,325.45a10.38,10.38,0,0,1,1.11-.63c9.76-4,10.58-4.08,17.24,2.73,4.45,4.55,8.32,9.48,8.06,15.57-.16,3.5-1.4,6.41-6.55,7s-7.59-1.92-9.2-5.12c-2.55-5.06-5-10.14-7.62-15.17A43.6,43.6,0,0,0,418.52,325.45Z"/><path d="M488.72,313.62c-5.71-11.74-18.19-15.8-32.83-17.23,2.07-6.62,2.06-6.6,9.71-6.05,8.75.62,17.34,1.78,24.59,5.84C499,301.1,498.41,309.1,488.72,313.62Z"/><path d="M399.66,324.56V295.9c9.34,5.21,15.6,10.63,16.84,18.46.78,4.85-3,8.13-9.62,9.38C404.86,324.12,402.75,324.22,399.66,324.56Z"/><path d="M415.77,281.7c11.16-2.18,21.7-2.58,32.14-.48,2,.41,4.85,3.21,4.55,4.56a17.25,17.25,0,0,1-5,8.65c-1,.91-5.3-.15-8.05-.47-.75-.09-1.39-.78-2-1.23-3.18-2.24-6.05-4.81-9.59-6.65S420.33,283.32,415.77,281.7Z"/></svg>